<svg xmlns="http://www.w3.org/2000/svg"><symbol id="facebook-icon-white" viewBox="0 0 256 256"><path fill="#fffffe" d="M234.5 43.1v169.8a21.4 21.4 0 0 1-17.6 21.3 31.1 31.1 0 0 1-4.3.3H43.3c-8.5 0-15-3.8-19.2-11.2a19.9 19.9 0 0 1-2.6-10.4V43.1a21.5 21.5 0 0 1 15.8-20.9 23 23 0 0 1 5.8-.7h169.8a21.4 21.4 0 0 1 21.3 17.6 26 26 0 0 1 .3 4z"/><path fill="#010101" d="M137.6 165.3v-36.4c0-.8-.2-.9-.9-.9h-11.1c-.6 0-.8-.1-.8-.7v-24.2c0-.6.2-.7.7-.7h11.2c.7 0 .9-.2.9-.9 0-5.7-.1-11.3 0-17a45 45 0 0 1 2.4-14.4c2.7-7.5 8-12.2 15.6-14.6a51.7 51.7 0 0 1 15.2-2.1h24.6c.6 0 .8.2.8.9 0 7.9-.1 15.9 0 23.8 0 .8-.3.9-.9.9h-14.8a19.9 19.9 0 0 0-4.2.4c-3.4.7-5.1 2.7-5.5 6.1s-.2 4.3-.2 6.5v10.7c0 .6.1.8.8.8h20.7c.8 0 .9.2.9.9-.3 5.5-.5 11.1-.8 16.6l-.3 6.5c0 .6-.3.5-.7.5h-18.6c-.8 0-.9.2-.9.9v72.7c0 .8-.2 1-1 1h-32.3c-.6 0-.8-.2-.8-.9z"/></symbol><symbol id="facebook-icon" viewBox="0 0 256 256"><path fill="#fdfdfd" d="M234.5 43.1v169.8a21.4 21.4 0 0 1-17.6 21.3 31.1 31.1 0 0 1-4.3.3H43.3c-8.5 0-15-3.8-19.2-11.2a19.9 19.9 0 0 1-2.6-10.4V43.1a21.5 21.5 0 0 1 15.8-20.9 23 23 0 0 1 5.8-.7h169.8a21.4 21.4 0 0 1 21.3 17.6 26 26 0 0 1 .3 4z"/><path fill="#0072ff" d="M234.5 43.1v169.8a21.4 21.4 0 0 1-17.6 21.3 31.1 31.1 0 0 1-4.3.3H43.3c-8.5 0-15-3.8-19.2-11.2a19.9 19.9 0 0 1-2.6-10.4V43.1a21.5 21.5 0 0 1 15.8-20.9 23 23 0 0 1 5.8-.7h169.8a21.4 21.4 0 0 1 21.3 17.6 26 26 0 0 1 .3 4z"/><path fill="#fefefe" d="M137.6 165.3v-36.4c0-.8-.2-.9-.9-.9h-11.1c-.6 0-.8-.1-.8-.7v-24.2c0-.6.2-.7.7-.7h11.2c.7 0 .9-.2.9-.9 0-5.7-.1-11.3 0-17a45 45 0 0 1 2.4-14.4c2.7-7.5 8-12.2 15.6-14.6a51.7 51.7 0 0 1 15.2-2.1h24.6c.6 0 .8.2.8.9 0 7.9-.1 15.9 0 23.8 0 .8-.3.9-.9.9h-14.8a19.9 19.9 0 0 0-4.2.4c-3.4.7-5.1 2.7-5.5 6.1s-.2 4.3-.2 6.5v10.7c0 .6.1.8.8.8h20.7c.8 0 .9.2.9.9-.3 5.5-.5 11.1-.8 16.6l-.3 6.5c0 .6-.3.5-.7.5h-18.6c-.8 0-.9.2-.9.9v72.7c0 .8-.2 1-1 1h-32.3c-.6 0-.8-.2-.8-.9z"/></symbol><symbol id="instagram-icon-white" viewBox="0 0 256 256"><path fill="#fffffe" d="M228.8 128.9V82.1a58.3 58.3 0 0 0-1.2-11.8 56.2 56.2 0 0 0-17.1-30.6 55.9 55.9 0 0 0-24-13.7 24.4 24.4 0 0 0-2.6-.6l-1.3-.3a63.8 63.8 0 0 0-10.8-1.1H78.3a56.7 56.7 0 0 0-10.1 1 55.4 55.4 0 0 0-31.8 17.3C26.3 53.2 20.9 66.1 20.8 80.9c-.1 31.2 0 62.4 0 93.6v1.3c.1.8.1 1.7.2 2.5s.2 2.6.4 3.8a21.7 21.7 0 0 0 .4 2.5c.2 1.4.5 2.8.8 4.1a55.4 55.4 0 0 0 7.5 17 57.1 57.1 0 0 0 6.5 8.2l1.1 1.1a62.3 62.3 0 0 0 5.5 4.9l2.3 1.8 1.2.8a48.5 48.5 0 0 0 4.9 2.9c2.1 1.1 4.2 2.1 6.4 3l2.7.9 4.1 1.1 4.2.8 4.4.6h100.4l3.9-.3 2.4-.3 1.2-.3a56 56 0 0 0 22-8.8 55 55 0 0 0 8.7-7.4l.9-.8a56.6 56.6 0 0 0 15.9-39.4c.1-15.1 0-30.3 0-45.6zm-104.1 56.9a57.8 57.8 0 1 1 57.8-57.8 57.8 57.8 0 0 1-57.8 57.8zM194 70.2a11.6 11.6 0 1 1 .3-23.1 11.6 11.6 0 1 1-.3 23.1z"/><path fill="#000001" d="M124.8 70.2a57.8 57.8 0 1 0 57.7 57.8 57.8 57.8 0 0 0-57.7-57.8zm-.1 92.5a34.7 34.7 0 1 1 34.8-34.7 34.8 34.8 0 0 1-34.8 34.7zM194 70.2a11.6 11.6 0 1 1 .3-23.1 11.6 11.6 0 1 1-.3 23.1z"/><path fill="#fffffe" d="M90.1 128a34.7 34.7 0 1 1 34.6 34.7A34.7 34.7 0 0 1 90.1 128z"/></symbol><symbol id="instagram-icon" viewBox="0 0 256 256"><path fill="#fff" d="M151.8 24h20a54.9 54.9 0 0 1 10.8 1 63.8 63.8 0 0 0-10.8-1zm-20.3 0z"/><path fill="#0072ff" d="M228.8 128.9V82.1a58.3 58.3 0 0 0-1.2-11.8 56.2 56.2 0 0 0-17.1-30.6 55.9 55.9 0 0 0-24-13.7 24.4 24.4 0 0 0-2.6-.6l-1.3-.3a63.8 63.8 0 0 0-10.8-1.1H78.3a56.7 56.7 0 0 0-10.1 1 55.4 55.4 0 0 0-31.8 17.3C26.3 53.2 20.9 66.1 20.8 80.9c-.1 31.2 0 62.4 0 93.6v1.3c.1.8.1 1.7.2 2.5s.2 2.6.4 3.8a21.7 21.7 0 0 0 .4 2.5c.2 1.4.5 2.8.8 4.1a55.4 55.4 0 0 0 7.5 17 57.1 57.1 0 0 0 6.5 8.2l1.1 1.1a62.3 62.3 0 0 0 5.5 4.9l2.3 1.8 1.2.8a48.5 48.5 0 0 0 4.9 2.9c2.1 1.1 4.2 2.1 6.4 3l2.7.9 4.1 1.1 4.2.8 4.4.6h100.4l3.9-.3 2.4-.3 1.2-.3a56 56 0 0 0 22-8.8 55 55 0 0 0 8.7-7.4l.9-.8a56.6 56.6 0 0 0 15.9-39.4c.1-15.1 0-30.3 0-45.6zm-104.1 56.9a57.8 57.8 0 1 1 57.8-57.8 57.8 57.8 0 0 1-57.8 57.8zM194 70.2a11.6 11.6 0 1 1 .3-23.1 11.6 11.6 0 1 1-.3 23.1z"/><path fill="#fff" d="M124.8 70.2a57.8 57.8 0 1 0 57.7 57.8 57.8 57.8 0 0 0-57.7-57.8zm-.1 92.5a34.7 34.7 0 1 1 34.8-34.7 34.8 34.8 0 0 1-34.8 34.7zM194 70.2a11.6 11.6 0 1 1 .3-23.1 11.6 11.6 0 1 1-.3 23.1z"/><path fill="#0072ff" d="M90.1 128a34.7 34.7 0 1 1 34.6 34.7A34.7 34.7 0 0 1 90.1 128z"/></symbol><symbol id="shopping-cart-white" viewBox="0 0 256 256"><circle cx="75.3" cy="217.2" r="21.6" fill="#fffffe"/><circle cx="191.4" cy="217.2" r="21.6" fill="#fffffe"/><path fill="none" stroke="#fffffe" stroke-linecap="round" stroke-linejoin="round" stroke-width="16.23" d="M60.9 159.5l4.5 24.9h126.2M19.4 19.9l17.5 7.3 5.3 29.3"/><path fill="#fffffe" stroke="#fffffe" stroke-linecap="round" stroke-linejoin="round" stroke-width="16.23" d="M234.6 56.5l-34.1 103H60.9l-18.7-103h192.4z"/><path fill="none" stroke="#000" stroke-linecap="round" stroke-miterlimit="10" stroke-width="7.44" d="M53.7 78.1h102.1M60.9 96.2h116.2"/></symbol><symbol id="shopping-cart" viewBox="0 0 256 256"><circle cx="75.3" cy="217.2" r="21.6" fill="#0072ff"/><circle cx="191.4" cy="217.2" r="21.6" fill="#0072ff"/><path fill="none" stroke="#0072ff" stroke-linecap="round" stroke-linejoin="round" stroke-width="16.23" d="M60.9 159.5l4.5 24.9h126.2M19.4 19.9l17.5 7.3 5.3 29.3"/><path fill="#0072ff" stroke="#0072ff" stroke-linecap="round" stroke-linejoin="round" stroke-width="16.23" d="M234.6 56.5l-34.1 103H60.9l-18.7-103h192.4z"/><path fill="none" stroke="#fff" stroke-linecap="round" stroke-miterlimit="10" stroke-width="7.44" d="M53.7 78.1h102.1M60.9 96.2h116.2"/></symbol><symbol id="twitter-icon-white" viewBox="0 0 256 256"><path fill="#fffffe" d="M234.7 43.1a19.9 19.9 0 0 0-.4-4.2 21.3 21.3 0 0 0-21.2-17.6H42.9a22.8 22.8 0 0 0-7.7 1.4A21.3 21.3 0 0 0 21.3 43v169.8a22.5 22.5 0 0 0 .4 4.4A21.3 21.3 0 0 0 43 234.7h170a19.6 19.6 0 0 0 4.1-.4 21.3 21.3 0 0 0 17.6-21.4zm-34.5 38.3a71.9 71.9 0 0 1-11.6 11.8 2.1 2.1 0 0 0-.9 1.8 88.2 88.2 0 0 1-1 16.2 93.1 93.1 0 0 1-5.6 20.2 93.8 93.8 0 0 1-16.1 25.9 82.5 82.5 0 0 1-39.3 24.8 90.3 90.3 0 0 1-30.6 3.3 82.9 82.9 0 0 1-29-7.1c-4.1-1.8-8-4-12-6.1l-.4-.4c8 .2 15.9-.2 23.7-2.4A74.3 74.3 0 0 0 99 159c-14.3-.8-23.2-8.6-28.6-21.2l.2-.3 3 .7c3.5 1 6.9.4 10.3-.6a32.2 32.2 0 0 1-17.2-10.7 28.7 28.7 0 0 1-6.9-19l6.6 2.4a56.7 56.7 0 0 0 6.9 1.5l-.4-.4a43.2 43.2 0 0 1-9.8-12.2 31.1 31.1 0 0 1-3.3-15.3 24.7 24.7 0 0 1 3-11.6l.7-1.2.5-.6c16.5 19.3 37.2 30.4 63 32-.2-1-.3-1.9-.5-2.8-1.6-7-.1-13.6 3.3-19.8a29.9 29.9 0 0 1 21.1-15.3c9.4-1.7 18 .1 25.5 6.2.9.7 1.6 1.6 2.5 2.4a1.3 1.3 0 0 0 .8.3c6.3-.9 12-3.5 17.5-6.6l1.2-.8c-2.3 7.6-7.4 12.7-13.6 16.9v.3c3-.7 6-1.2 8.9-2.1s5.7-1.9 8.7-3z"/><path fill="#000001" d="M198.4 66.1c-2.3 7.6-7.4 12.7-13.6 16.9v.2a88.2 88.2 0 0 0 8.9-2c2.9-.8 5.7-1.9 8.6-3l-2.2 3.2a71.9 71.9 0 0 1-11.6 11.8 2.1 2.1 0 0 0-.9 1.8 88.2 88.2 0 0 1-1 16.2 93.1 93.1 0 0 1-5.6 20.2 93.8 93.8 0 0 1-16 25.9 82.5 82.5 0 0 1-39.3 24.8 90.3 90.3 0 0 1-30.6 3.3 82.9 82.9 0 0 1-29-7.1c-4.1-1.8-8-4-12-6.1l-.4-.4c8 .2 15.9-.2 23.7-2.4A74.3 74.3 0 0 0 99 159c-14.3-.8-23.2-8.6-28.6-21.2l.2-.3 3 .7c3.5 1 6.9.4 10.3-.6a32.2 32.2 0 0 1-17.2-10.7 28.9 28.9 0 0 1-6.9-19l6.6 2.4a56.7 56.7 0 0 0 6.9 1.5l-.4-.4a43.2 43.2 0 0 1-9.8-12.2 30 30 0 0 1-3.3-15.3 24.7 24.7 0 0 1 3-11.6l.7-1.2.5-.6c16.5 19.3 37.2 30.4 63 32-.2-1-.3-1.9-.5-2.8-1.6-7-.1-13.6 3.3-19.8a29.9 29.9 0 0 1 21.1-15.3c9.4-1.7 18 .1 25.5 6.2.9.7 1.6 1.6 2.5 2.4a1.3 1.3 0 0 0 .8.3 52.3 52.3 0 0 0 17.5-6.6z"/></symbol><symbol id="twitter-icon" viewBox="0 0 256 256"><path fill="#0072ff" d="M234.7 43.1a19.9 19.9 0 0 0-.4-4.2 21.3 21.3 0 0 0-21.2-17.6H42.9a22.8 22.8 0 0 0-7.7 1.4A21.3 21.3 0 0 0 21.3 43v169.8a22.5 22.5 0 0 0 .4 4.4A21.3 21.3 0 0 0 43 234.7h170a19.6 19.6 0 0 0 4.1-.4 21.3 21.3 0 0 0 17.6-21.4zm-34.5 38.3a71.9 71.9 0 0 1-11.6 11.8 2.1 2.1 0 0 0-.9 1.8 88.2 88.2 0 0 1-1 16.2 93.1 93.1 0 0 1-5.6 20.2 93.8 93.8 0 0 1-16.1 25.9 82.5 82.5 0 0 1-39.3 24.8 90.3 90.3 0 0 1-30.6 3.3 82.9 82.9 0 0 1-29-7.1c-4.1-1.8-8-4-12-6.1l-.4-.4c8 .2 15.9-.2 23.7-2.4A74.3 74.3 0 0 0 99 159c-14.3-.8-23.2-8.6-28.6-21.2l.2-.3 3 .7c3.5 1 6.9.4 10.3-.6a32.2 32.2 0 0 1-17.2-10.7 28.7 28.7 0 0 1-6.9-19l6.6 2.4a56.7 56.7 0 0 0 6.9 1.5l-.4-.4a43.2 43.2 0 0 1-9.8-12.2 31.1 31.1 0 0 1-3.3-15.3 24.7 24.7 0 0 1 3-11.6l.7-1.2.5-.6c16.5 19.3 37.2 30.4 63 32-.2-1-.3-1.9-.5-2.8-1.6-7-.1-13.6 3.3-19.8a29.9 29.9 0 0 1 21.1-15.3c9.4-1.7 18 .1 25.5 6.2.9.7 1.6 1.6 2.5 2.4a1.3 1.3 0 0 0 .8.3c6.3-.9 12-3.5 17.5-6.6l1.2-.8c-2.3 7.6-7.4 12.7-13.6 16.9v.3c3-.7 6-1.2 8.9-2.1s5.7-1.9 8.7-3z"/><path fill="#fff" d="M198.4 66.1c-2.3 7.6-7.4 12.7-13.6 16.9v.2a88.2 88.2 0 0 0 8.9-2c2.9-.8 5.7-1.9 8.6-3l-2.2 3.2a71.9 71.9 0 0 1-11.6 11.8 2.1 2.1 0 0 0-.9 1.8 88.2 88.2 0 0 1-1 16.2 93.1 93.1 0 0 1-5.6 20.2 93.8 93.8 0 0 1-16 25.9 82.5 82.5 0 0 1-39.3 24.8 90.3 90.3 0 0 1-30.6 3.3 82.9 82.9 0 0 1-29-7.1c-4.1-1.8-8-4-12-6.1l-.4-.4c8 .2 15.9-.2 23.7-2.4A74.3 74.3 0 0 0 99 159c-14.3-.8-23.2-8.6-28.6-21.2l.2-.3 3 .7c3.5 1 6.9.4 10.3-.6a32.2 32.2 0 0 1-17.2-10.7 28.9 28.9 0 0 1-6.9-19l6.6 2.4a56.7 56.7 0 0 0 6.9 1.5l-.4-.4a43.2 43.2 0 0 1-9.8-12.2 30 30 0 0 1-3.3-15.3 24.7 24.7 0 0 1 3-11.6l.7-1.2.5-.6c16.5 19.3 37.2 30.4 63 32-.2-1-.3-1.9-.5-2.8-1.6-7-.1-13.6 3.3-19.8a29.9 29.9 0 0 1 21.1-15.3c9.4-1.7 18 .1 25.5 6.2.9.7 1.6 1.6 2.5 2.4a1.3 1.3 0 0 0 .8.3 52.3 52.3 0 0 0 17.5-6.6z"/></symbol></svg>