<svg xmlns="http://www.w3.org/2000/svg" width="86.4" height="86.4" viewBox="0 0 64 64.1"><path fill="#231f20" d="M60.7 41.7v-.4a1 1 0 0 1 0 .4zm-5.5.6a26 26 0 0 1-1.6 9.4c-1.2 2.7-2.8 4.4-4.5 4.4s-3.9-2.3-5-5.8c1 1.7 2.3 2.8 3.7 2.8s3.4-1.8 4.5-4.6a7.3 7.3 0 0 0 .5-1.2 30.8 30.8 0 0 0 1.2-8.1 7.1 7.1 0 0 0-.1-1.4 23.3 23.3 0 0 0-.4-3.8 19.1 19.1 0 0 0-.7-2.8 11.3 11.3 0 0 1 1.1 2.2 22.9 22.9 0 0 1 .8 2.8 38.6 38.6 0 0 1 .5 6.1zm-9.5-1.7a28.1 28.1 0 0 1-1.6 9.7c-1.2 3.3-3.1 5.5-5.2 5.5s-4.2-2.6-5.4-6.4c1.1 1.9 2.5 3 4 3.1s4-2.2 5.2-5.6c.2-.4.3-.9.5-1.3a30.3 30.3 0 0 0 1.1-8.3c0-1.1 0-2.1-.1-3.1a27.9 27.9 0 0 0-.8-4.5c.1-.1.1-.3.2-.4s.8 2.1 1.2 3.3a32.6 32.6 0 0 1 .9 8z"/><path fill="#231f20" d="M43.6 29.3c-.1.1-.1.3-.2.4l-.3-1.3z"/><path fill="#231f20" d="M62.6 45.2c0 6.2-2.3 11.2-5 11.2s-3.1-1.9-4-4.7c.8 1.4 1.8 2.3 3 2.3s3.4-2.2 4.2-5.5a13.8 13.8 0 0 0-.1-6.7 1 1 0 0 0-.1-.4l-.4-1.4a35.6 35.6 0 0 0-2.8-6l-1.2-1.8-.3-.6a35.9 35.9 0 0 0-5.2-5.8 10.7 10.7 0 0 0-1.6-1.4l-.8-.7-.4-.3-.4-.3-.5-.3-.4-.3-.9-.6-1.8-1a31.2 31.2 0 0 0-7.6-3.1l-4-.8H21.5l-.4.2h-.5a21.6 21.6 0 0 0-3.4 1.7 13.3 13.3 0 0 0-3 2.3 16.7 16.7 0 0 0-2.5 2.8 17.7 17.7 0 0 0-1.9 3.3 18.6 18.6 0 0 0-1.6 7.4.6.6 0 0 0-.1.4v.2a.3.3 0 0 0 .1.2V37a13.6 13.6 0 0 0 .4 1.7v.4l.2.4v.4a.5.5 0 0 1 .2.4l.9 1.4a9.9 9.9 0 0 0 2.5 2.5 4.6 4.6 0 0 0 1.5.9l1.6.7 1.8.4H19a5.7 5.7 0 0 0 3-1 4.3 4.3 0 0 0 1.2-1.1 7.1 7.1 0 0 0 1-1.4 8.4 8.4 0 0 0 .5-1.7v-.2c.1 0 .1-.1.1-.2v-.9a4.7 4.7 0 0 0-.6-1.5 4.3 4.3 0 0 0-1-1.2 3 3 0 0 0-1.6-.5h-.7l-.7.3a2.6 2.6 0 0 0-1 1.3.3.3 0 0 0-.1.2v.4c0 .1.1.3.1.4l.3.3a1.8 1.8 0 0 0 .7.5h.8l.3-.3c.1-.2.2-.3.2-.5a.8.8 0 0 0-.2-.4c-.1-.2-.2-.3-.4-.3s.4 0 .5.2a1 1 0 0 1 .4.5v.2h-.1c0 .2-.2.4-.3.6l-.6.4h-.7a2.1 2.1 0 0 1-1.3-.5 1.2 1.2 0 0 1-.5-.5 2.1 2.1 0 0 1-.4-.6c-.1-.2-.1-.5-.2-.7v-.4a4.2 4.2 0 0 1 1.2-2.6l1.2-.8 1.5-.4a6.9 6.9 0 0 1 2.8.5 5.7 5.7 0 0 1 2.3 1.5 8.2 8.2 0 0 1 1.6 2.5l.3 1.5v1.4a8.6 8.6 0 0 1-.5 2.7 10.5 10.5 0 0 1-3.1 5h-.3l-.2.2-.6.4-1.3.7-.3.2h-.4l-.6.3-1.5.3h-2.7a12.4 12.4 0 0 1-2.7-.3 16.9 16.9 0 0 1-5-2l-2.2-1.2a11.9 11.9 0 0 1-1.9-2 18.8 18.8 0 0 1-1.6-2.3l-.3-.6-.3-.6-.3-.7c0-.1-.1-.2-.1-.3v-.3a13.8 13.8 0 0 1-.9-2.7v-1.4a.4.4 0 0 1-.1-.3v-1.1a29.2 29.2 0 0 1 .3-5.1 29.1 29.1 0 0 1 1.6-5 22.3 22.3 0 0 1 2.5-4.5 25 25 0 0 1 3.4-3.9 29.4 29.4 0 0 1 4.1-3.1 26.2 26.2 0 0 1 4.8-2.2l.6-.2.6-.2.6-.2h.7l.6-.2h8.2l1.2.2h2.4a42.7 42.7 0 0 1 4.8 1.2 37.1 37.1 0 0 1 8.7 4.3 33.3 33.3 0 0 1 7.2 6.3 37.2 37.2 0 0 1 5.2 7.9 32.8 32.8 0 0 1 2.8 8.9l.3 1.8a26 26 0 0 1 .3 4z"/></svg>