<svg id="Layer_1" data-name="Layer 1" xmlns="http://www.w3.org/2000/svg" width="0.2in" height="0.2in" viewBox="0 0 15.8 15.8"><title>logo-16</title><path d="M14.3,9.8h0Z" fill="#231f20"/><polygon points="12.7 12 12.7 12 12.7 12 12.7 12 12.7 12" fill="#fff"/><path d="M13,9.9a6.2,6.2,0,0,1-.3,2.1h0c-.3.6-.6,1-1,1s-.9-.5-1.1-1.3a.9.9,0,0,0,.8.6c.4,0,.7-.4,1-1h0c0-.1.1-.2.1-.3h0a8.4,8.4,0,0,0,.3-1.8.4.4,0,0,0-.1-.3h0V8.1c-.1-.2-.1-.4-.2-.6a.8.8,0,0,1,.2.5,1.1,1.1,0,0,1,.2.6h0A5.3,5.3,0,0,1,13,9.9Z" fill="#fff"/><path d="M10.9,9.5a6.9,6.9,0,0,1-.3,2.2c-.3.7-.7,1.2-1.2,1.2s-.9-.6-1.2-1.4.6.7.9.7.9-.5,1.2-1.2a.4.4,0,0,1,.1-.3,11.1,11.1,0,0,0,.2-1.9V8.1a3.6,3.6,0,0,0-.2-1,.4.4,0,0,0-.1-.3l.2.3a6.4,6.4,0,0,1,.2.7A4.7,4.7,0,0,1,10.9,9.5Z" fill="#fff"/><path d="M14.7,10.6c0,1.3-.5,2.5-1.1,2.5s-.7-.5-.9-1.1.4.5.6.5.8-.5,1-1.2h0a7.1,7.1,0,0,0,0-1.5h-.1V9.4a5.2,5.2,0,0,0-.6-1.3l-.2-.4h-.1A7.4,7.4,0,0,0,12,6.3L11.7,6l-.2-.2h-.6l-.4-.2L8.8,4.5,8,4.3H5.4l-.8.4L4,5.4a3.4,3.4,0,0,0-.6.6,2.5,2.5,0,0,0-.4.7,3.3,3.3,0,0,0-.4,1.7h0c0,.2.1.3.1.4h.1c.1.1.2.2.2.3l.6.6.3.2H5.1l.6-.2.3-.3c.1,0,.1-.2.2-.3a.4.4,0,0,0,.1-.3h0V9.3A.4.4,0,0,0,6.2,9c-.1-.1-.1-.2-.3-.2l-.3-.2H5.3L5.1,9H5a.1.1,0,0,1,.1.1h.4a.1.1,0,0,0,.1-.1H4.8V9.1h0A.5.5,0,0,1,5,8.4l.3-.2h.9a1,1,0,0,1,.5.4,1,1,0,0,1,.4.5v.3h0a1.3,1.3,0,0,1-.1.6,2,2,0,0,1-.7,1H4l-1.1-.5-.5-.3L2,10.6a1,1,0,0,1-.4-.5H1.5c0-.1-.1-.1-.1-.2h0A1.4,1.4,0,0,1,1.2,9V8.8h0a2.5,2.5,0,0,1,.1-1.2,2.6,2.6,0,0,1,.3-1.1,2.7,2.7,0,0,1,.6-1,2.7,2.7,0,0,1,.7-.8l.9-.7,1.1-.5h.4a.1.1,0,0,1,.1-.1h.3c.1,0,.1,0,.1-.1H7.4c.1,0,.2,0,.2.1h.6l1,.3a7.5,7.5,0,0,1,2,1,7,7,0,0,1,1.6,1.4,9.9,9.9,0,0,1,1.1,1.7,6.6,6.6,0,0,1,.6,2,.6.6,0,0,1,.1.4h0C14.6,10,14.7,10.3,14.7,10.6Z" fill="#fff"/></svg>