<svg id="Layer_1" data-name="Layer 1" xmlns="http://www.w3.org/2000/svg" width="0.4in" height="0.4in" viewBox="0 0 31.6 31.7"><title>logo-32</title><path d="M29.1,19.8v0Z" fill="#231f20"/><path d="M25.8,24.4Z" fill="#fff"/><path d="M26.5,20a14,14,0,0,1-.7,4.4h0c-.6,1.2-1.3,2-2.1,2s-1.8-1.1-2.3-2.7c.5.8,1,1.3,1.7,1.3s1.6-.8,2.1-2.1h0l.2-.5h0a14.6,14.6,0,0,0,.5-3.8v-.7h0a8.8,8.8,0,0,0-.2-1.7,5,5,0,0,0-.3-1.3,3.1,3.1,0,0,1,.5,1l.4,1.3h0A24.6,24.6,0,0,1,26.5,20Z" fill="#fff"/><path d="M22.1,19.2a14.7,14.7,0,0,1-.7,4.5c-.6,1.6-1.5,2.6-2.4,2.6s-2-1.2-2.5-3c.5.9,1.1,1.4,1.8,1.4s1.9-1,2.4-2.5a1.4,1.4,0,0,0,.2-.7,11.2,11.2,0,0,0,.6-3.8,6.1,6.1,0,0,0-.1-1.4q-.1-1.2-.3-2.1c-.1-.2-.1-.4-.2-.6a.8.8,0,0,1,.2.4l.6,1.5A14.5,14.5,0,0,1,22.1,19.2Z" fill="#fff"/><path d="M29.9,21.4c0,2.8-1,5.2-2.3,5.2s-1.4-.9-1.8-2.2a1.6,1.6,0,0,0,1.3,1c.9,0,1.6-1,2-2.5h0a7.5,7.5,0,0,0,0-3.1h0v-.2h0l-.2-.7a13.4,13.4,0,0,0-1.3-2.7,5.6,5.6,0,0,0-.5-.8l-.2-.3a15.5,15.5,0,0,0-2.4-2.7l-.7-.7-.4-.3h-.4l-.2-.2h-.2l-.4-.3-.8-.5a15.1,15.1,0,0,0-3.5-1.4l-1.9-.4H10.5l-1.6.8-1.3,1a5.3,5.3,0,0,0-1.2,1.4,9.9,9.9,0,0,0-.9,1.5,7.7,7.7,0,0,0-.7,3.4c-.1.1-.1.1-.1.2h.1v.2a1.9,1.9,0,0,0,.2.7H5v.6l.5.7a5.7,5.7,0,0,0,1.1,1.1l.7.4a2,2,0,0,0,.8.4H9.9a2.4,2.4,0,0,0,1.3-.5,1,1,0,0,0,.6-.5l.5-.6c.1-.3.1-.5.2-.8h0c.1-.1,0-.2,0-.3a1.4,1.4,0,0,0-.2-.7l-.6-.5-.7-.3h-.7a.7.7,0,0,0-.4.6H9.8v.2h.1v.2l.3.2h.4v-.2c.1,0,.1-.1.1-.2s0-.1-.1-.2h.1a.4.4,0,0,1,.1.3h.1a.1.1,0,0,1-.1.1h0c0,.1-.1.2-.1.3h-.6l-.6-.2-.3-.3a.4.4,0,0,1-.1-.3.4.4,0,0,1-.1-.3v-.2h0a1.8,1.8,0,0,1,.5-1.2l.6-.4H11a2.5,2.5,0,0,1,1.2.1,3.1,3.1,0,0,1,1.1.8,1.9,1.9,0,0,1,.7,1.1,2.5,2.5,0,0,1,.2.7h0v.4a5,5,0,0,1-.2,1.2,6.4,6.4,0,0,1-1.4,2.2h-.3l-.3.2-.6.3h-.6l-.6.2H9.8a.1.1,0,0,0-.1.1H8.9l-1.3-.2a9.2,9.2,0,0,1-2.3-.9l-1-.8-.9-.9-.7-1-.2-.3v-.6c0-.1-.1-.1-.1-.2h0A5,5,0,0,1,1.8,18v-.3h0v-.4h0v-.3a19.4,19.4,0,0,1,.2-2.4,15.5,15.5,0,0,1,.7-2.3A11.3,11.3,0,0,1,3.8,10,9.3,9.3,0,0,1,5.4,8.2,8.5,8.5,0,0,1,7.3,6.8,9.1,9.1,0,0,1,9.5,5.7h6.9l2.2.6a18.7,18.7,0,0,1,4,2,13.2,13.2,0,0,1,3.3,2.9,18.5,18.5,0,0,1,2.5,3.7,19.6,19.6,0,0,1,1.3,4.1c0,.3.1.6.1.8h0A11.5,11.5,0,0,1,29.9,21.4Z" fill="#fff"/></svg>