<svg id="Layer_1" data-name="Layer 1" xmlns="http://www.w3.org/2000/svg" width="0.9in" height="0.9in" viewBox="0 0 64 64.1"><title>logo-64</title><path d="M59.3,40.2v-.4A1,1,0,0,0,59.3,40.2Z" fill="#231f20"/><path d="M52.5,49.7h0Z" fill="#fff"/><path d="M54,40.7a26,26,0,0,1-1.5,9h-.1c-1,2.6-2.6,4.2-4.2,4.2s-3.7-2.2-4.7-5.5c.9,1.6,2.1,2.6,3.4,2.6s3.3-1.6,4.4-4.3h0c.1-.4.3-.8.4-1.1h0a26.2,26.2,0,0,0,1.1-7.8V36.5h0c-.1-1.3-.2-2.5-.4-3.7l-.6-2.6a10.2,10.2,0,0,1,.9,2.1,17.3,17.3,0,0,1,.8,2.7h0A25.7,25.7,0,0,1,54,40.7Z" fill="#fff"/><path d="M45,39.1a28.8,28.8,0,0,1-1.5,9.3c-1.2,3.2-3,5.2-5,5.2s-4-2.4-5.2-6.1c1.1,1.8,2.4,2.9,3.9,2.9s3.7-2,4.9-5.2c.2-.5.3-.9.5-1.3a31.6,31.6,0,0,0,1-7.9c0-1,0-2-.1-3a27.6,27.6,0,0,0-.7-4.3l-.3-1.2.4.9a14.3,14.3,0,0,1,1.2,3.1A34.4,34.4,0,0,1,45,39.1Z" fill="#fff"/><path d="M61,43.5c0,5.9-2.1,10.7-4.7,10.7s-3-1.8-3.8-4.5c.7,1.4,1.7,2.2,2.8,2.2s3.2-2.1,4.1-5.3h0a15.7,15.7,0,0,0-.1-6.4h0a1,1,0,0,1-.1-.4h0l-.5-1.3a36.8,36.8,0,0,0-2.6-5.7L55,31.1l-.4-.5A32.8,32.8,0,0,0,49.7,25l-1.5-1.3-.8-.6-.4-.3-.4-.3-.4-.3-.4-.3-.8-.5-1.7-1a33,33,0,0,0-7.3-3l-3.8-.7H22.4l-.5.2h-.4l-.4.2A24.1,24.1,0,0,0,17.8,19L15,21.2a15.5,15.5,0,0,0-2.4,2.7A19.2,19.2,0,0,0,10.8,27a18.9,18.9,0,0,0-1.6,7.1v1.6l.3,1.6v.2a.3.3,0,0,0,.1.2v.4l.2.3c0,.2.1.3.1.4l.9,1.4a10.4,10.4,0,0,0,2.3,2.4l1.5.9,1.5.6,1.7.4h1.6a6.3,6.3,0,0,0,2.9-1l1.2-1,.9-1.4a8.8,8.8,0,0,0,.5-1.5V39h0a2.2,2.2,0,0,0-.1-.8,3.5,3.5,0,0,0-.5-1.3,5.7,5.7,0,0,0-1.1-1.1L22,35.2h-.7l-.6.2a2.6,2.6,0,0,0-1,1.3h0v.2a.2.2,0,0,0,0,.3c0,.2,0,.3.1.4s.1.2.2.3a1,1,0,0,0,.7.4h.8l.3-.3c0-.2.1-.3.1-.5a.6.6,0,0,0-.1-.4l-.5-.2a.4.4,0,0,1,.5.1,1,1,0,0,1,.4.5h0v.2h-.1a.9.9,0,0,1-.3.6l-.6.3h-.6a2.8,2.8,0,0,1-1.3-.4l-.5-.5-.3-.6a1.9,1.9,0,0,1-.2-.7v-.3h0v-.2a4.2,4.2,0,0,1,1.2-2.4l1.1-.8A3.5,3.5,0,0,1,22,33a5.7,5.7,0,0,1,2.6.4,5.1,5.1,0,0,1,2.3,1.5,7.2,7.2,0,0,1,1.4,2.4,5.7,5.7,0,0,1,.4,1.4v.2h0v1a7.5,7.5,0,0,1-.5,2.6A10,10,0,0,1,25.3,47H25l-.3.2a1,1,0,0,1-.5.4l-1.2.7h-.3l-.4.2-.6.2a7,7,0,0,1-1.4.3H17.7l-2.5-.4a13.4,13.4,0,0,1-4.8-1.9,11.3,11.3,0,0,1-2.1-1.5,10.7,10.7,0,0,1-1.8-1.9A10.7,10.7,0,0,1,5,41.6L4.7,41l-.3-.6-.3-.6c0-.1-.1-.2-.1-.3v-.3a23.3,23.3,0,0,1-.7-2.5V34a20.7,20.7,0,0,1,.4-4.9,25.4,25.4,0,0,1,1.4-4.7,36.2,36.2,0,0,1,2.4-4.3,29.1,29.1,0,0,1,3.3-3.7,28.8,28.8,0,0,1,3.9-3l4.5-2.1.6-.2h.6l.6-.2h.6l.6-.2H33.2l4.5,1.2A33.8,33.8,0,0,1,46,16a35.3,35.3,0,0,1,6.8,6,33.8,33.8,0,0,1,5,7.5A32.4,32.4,0,0,1,60.5,38l.3,1.7h0A14.8,14.8,0,0,1,61,43.5Z" fill="#fff"/><path d="M53.6,51.7Z" fill="#fff"/></svg>