<svg xmlns="http://www.w3.org/2000/svg" width="3.6in" height="3.7in" viewBox="0 0 255.9 265.7"><path fill="#231f20" d="M244.8 167.6l-.6-1.8a8 8 0 0 1 .6 1.8zm-22.5 2.1c-.1 14.8-2.6 28.3-6.8 38.4-4.6 11.1-11.2 18.1-18.4 18.1s-15.7-9.4-20.2-23.8c4.1 7.2 9.3 11.5 15 11.5 7.3 0 13.9-7.2 18.6-18.6.6-1.6 1.2-3.2 1.7-4.9a112.4 112.4 0 0 0 4.9-33c0-2-.1-4-.1-6a124.6 124.6 0 0 0-1.7-15.5 88 88 0 0 0-2.8-11.5 48 48 0 0 1 4.2 9.1 72.3 72.3 0 0 1 3.2 11.6 118 118 0 0 1 2.4 24.6z"/><path fill="#231f20" d="M183.4 162.8c-.1 15.1-2.5 28.9-6.5 39.6-5.1 13.8-12.7 22.5-21.2 22.4s-17.3-10.3-22.2-26c4.6 7.8 10.3 12.5 16.5 12.5 8.5.1 16.2-8.7 21.2-22.6.7-1.7 1.3-3.6 1.9-5.5a124.2 124.2 0 0 0 4.5-33.9 105.4 105.4 0 0 0-.5-12.7 111 111 0 0 0-3-18.3l.6-1.4a72.2 72.2 0 0 1 4.8 13.4 128.7 128.7 0 0 1 3.9 32.5z"/><path fill="#231f20" d="M174.7 116.9l-.6 1.4c-.4-1.8-.9-3.6-1.4-5.3.7 1.3 1.4 2.6 2 3.9z"/><path fill="#231f20" d="M252.4 181.7c-.1 25.3-9.3 45.8-20.5 45.8-6.8-.1-12.7-7.6-16.3-19.3 3.3 5.8 7.5 9.3 12.1 9.3 7.4 0 13.9-8.9 17.5-22.4a59.8 59.8 0 0 0-.4-27.5 8 8 0 0 0-.6-1.8l-1.7-5.8a149.6 149.6 0 0 0-11.6-24.2q-2.1-3.7-4.5-7.2a18.8 18.8 0 0 0-1.6-2.3 141.8 141.8 0 0 0-21-24l-6.5-5.6L194 94l-1.8-1.3-1.7-1.2-1.7-1.3L187 89l-3.6-2.3-7.3-4.3a133.1 133.1 0 0 0-31.2-12.5 132.6 132.6 0 0 0-16.4-3.4l-2-.2-1.1-.2h-1l-2.1-.2-2.1-.2-4.1-.2H99.8l-1.9.2-2 .3-1.9.3-1.9.4-1.9.4-1.9.5-1.8.4-1.9.6-1.8.6-1.9.7A74.1 74.1 0 0 0 67 76.7 78.6 78.6 0 0 0 54.8 86a70.1 70.1 0 0 0-10.2 11.6 78 78 0 0 0-7.8 13.4 79.6 79.6 0 0 0-6.8 30.1v4.4a2.8 2.8 0 0 0 .1.9v1.7a56.7 56.7 0 0 0 1.5 6.9l.3.8c.1.3.1.6.2.8l.6 1.7.7 1.6.8 1.6a42.4 42.4 0 0 0 3.6 6.1 45.6 45.6 0 0 0 10 10.1 57.3 57.3 0 0 0 6.2 3.8 50.7 50.7 0 0 0 6.8 2.7 41.9 41.9 0 0 0 7.2 1.6l1.8.2 1.9.2h3.2a25 25 0 0 0 12.3-4.1 35.7 35.7 0 0 0 5.1-4.5 34.2 34.2 0 0 0 3.8-5.8 28.4 28.4 0 0 0 2.2-6.6c0-.3.1-.6.1-.9s.1-.6.1-.9v-.9c0-.2 0-.3.1-.4v-.4a16.7 16.7 0 0 0-.2-3.1 14.4 14.4 0 0 0-2.3-5.8 17.2 17.2 0 0 0-4.8-4.5 16.6 16.6 0 0 0-6.6-2.2 10.1 10.1 0 0 0-3 .1 10.8 10.8 0 0 0-2.9 1.3 9.3 9.3 0 0 0-3.9 5.3v.8c-.1.3-.1.6-.2.9v1.5a9.8 9.8 0 0 0 .5 1.6 5.1 5.1 0 0 0 .9 1.3 6 6 0 0 0 3 1.9h1.7a5.8 5.8 0 0 0 1.7-.6 3 3 0 0 0 1.2-1.3 3 3 0 0 0 .6-1.8 2.3 2.3 0 0 0-.6-1.9 2.9 2.9 0 0 0-1.9-1 3.2 3.2 0 0 1 2.3.6 3.7 3.7 0 0 1 1.4 2.2v1.3c0 .2-.1.4-.1.6s-.1.5-.2.7a5.5 5.5 0 0 1-1.4 2.3 6.7 6.7 0 0 1-2.4 1.6l-1.4.3h-1.2a9.4 9.4 0 0 1-5.3-1.8 10.2 10.2 0 0 1-2.2-2 13.5 13.5 0 0 1-1.5-2.6 14.6 14.6 0 0 1-.7-3v-2.8a16.4 16.4 0 0 1 4.9-10.2 15.6 15.6 0 0 1 5-3.3 15.2 15.2 0 0 1 6-1.5 25.5 25.5 0 0 1 11.2 1.6 27.2 27.2 0 0 1 9.7 6.5 26.7 26.7 0 0 1 6.2 10.2 25.8 25.8 0 0 1 1.3 6v5.7a41.8 41.8 0 0 1-2 11.1 42.9 42.9 0 0 1-12.7 19l-.6.5-.5.4-1.2.9a20.7 20.7 0 0 1-2.4 1.7 42.1 42.1 0 0 1-5.1 2.9l-1.4.6-1.4.5-2.8 1a37.7 37.7 0 0 1-5.8 1.4l-2.9.4h-8.2a79.2 79.2 0 0 1-10.9-1.4 66.5 66.5 0 0 1-20.5-8.1 57.8 57.8 0 0 1-9-6.6 66.5 66.5 0 0 1-7.8-8.1 83.1 83.1 0 0 1-6.3-9.2l-1.4-2.5-1.2-2.6c-.4-.8-.7-1.7-1.1-2.6a6.9 6.9 0 0 1-.5-1.3l-.5-1.3a71.7 71.7 0 0 1-3-11l-.4-2.8c-.1-.5-.1-.9-.2-1.4v-1.4a7.6 7.6 0 0 1-.1-1.5v-1.4a25.3 25.3 0 0 1-.1-2.7 105.1 105.1 0 0 1 1.8-21 101.7 101.7 0 0 1 6.3-20.3 95.9 95.9 0 0 1 10.1-18.5 105.7 105.7 0 0 1 13.9-16 100.3 100.3 0 0 1 17-12.7 95.7 95.7 0 0 1 19.2-8.9l2.5-.9 2.5-.7 2.6-.7 2.6-.6 2.6-.6 2.6-.5 2.6-.4 2.6-.4 2.6-.2 2.7-.2 2.6-.2H113l2.5.2 2.5.2 5 .5 2.4.3 2.5.4 1.2.2 1.3.2 2.4.5a140.2 140.2 0 0 1 19.3 5 149.2 149.2 0 0 1 35.6 17.5 145.7 145.7 0 0 1 29.4 25.9 142.3 142.3 0 0 1 21.3 32.3 139.9 139.9 0 0 1 11.7 36.5c.4 2.5.8 5 1 7.5h.1a104.5 104.5 0 0 1 1.2 16.2z"/></svg>