<svg xmlns="http://www.w3.org/2000/svg" width="38.4" height="38.4" viewBox="0 0 31.6 31.7"><path fill="#231f20" d="M29.6 19.9zm-2.6.3a18.2 18.2 0 0 1-.8 4.5c-.6 1.3-1.4 2.1-2.2 2.1s-1.9-1.1-2.4-2.8c.5.9 1.1 1.4 1.8 1.4s1.6-.9 2.2-2.2a1.4 1.4 0 0 1 .2-.6 14.8 14.8 0 0 0 .5-3.9V18a11 11 0 0 0-.2-1.8l-.3-1.4a5.4 5.4 0 0 1 .5 1.1c.1.4.3.9.4 1.4a12.9 12.9 0 0 1 .3 2.9z"/><path fill="#231f20" d="M22.4 19.4a12.6 12.6 0 0 1-.8 4.6c-.6 1.7-1.5 2.7-2.5 2.7s-2-1.2-2.6-3.1a2.5 2.5 0 0 0 1.9 1.5c1 0 1.9-1 2.5-2.7l.3-.6a16.2 16.2 0 0 0 .5-4 7.6 7.6 0 0 0-.1-1.5 14.6 14.6 0 0 0-.3-2.2h.1a6.6 6.6 0 0 1 .5 1.5 16 16 0 0 1 .5 3.8zm-1-5.4h-.1c-.1-.2-.1-.4-.2-.6z"/><path fill="#231f20" d="M30.5 21.6c0 3-1.1 5.4-2.4 5.4s-1.5-.9-1.9-2.3c.4.7.9 1.1 1.4 1.1s1.6-1 2.1-2.6a8 8 0 0 0-.1-3.3v-.2l-.2-.7a14.3 14.3 0 0 0-1.4-2.8l-.6-.9c0-.1-.1-.1-.1-.2a23.7 23.7 0 0 0-2.5-2.9l-.8-.6-.4-.3c0-.1-.1-.1-.2-.2h-.2l-.2-.2h-.2l-.4-.3-.9-.5a23.9 23.9 0 0 0-3.7-1.5L15.9 8h-5.6a8 8 0 0 0-1.6.8 8.3 8.3 0 0 0-1.5 1.1L6 11.7l-.9 1.6a8.5 8.5 0 0 0-.8 3.5v.4c.1.3.1.6.2.8h.1v.6a4.3 4.3 0 0 0 .4.7 6.8 6.8 0 0 0 1.2 1.2l.8.5.8.3.8.2h.8a3 3 0 0 0 1.5-.5l.6-.5a4.3 4.3 0 0 0 .4-.7l.3-.8v-.3a.9.9 0 0 0-.3-.7 1.2 1.2 0 0 0-.5-.5 1.3 1.3 0 0 0-.8-.3h-.4l-.3.2a1 1 0 0 0-.5.6v.4h.1l.4.2h.4c.1 0 .1-.1.1-.2s.1-.1.1-.2V18c0-.1-.1-.1-.2-.1h.3l.2.3h-.1c0 .1-.1.2-.1.3l-.3.2H10l-.6-.2-.2-.2-.2.5c0-.2-.1-.3-.1-.4v-.2a1.4 1.4 0 0 1 .6-1.2l.6-.4.7-.2a2 2 0 0 1 1.3.2 2.6 2.6 0 0 1 1.1.7 4.2 4.2 0 0 1 .8 1.2 2 2 0 0 1 .1.7v.2c.1 0 .1.1.1.2a.1.1 0 0 0-.1.1 2.7 2.7 0 0 1-.2 1.3 5.1 5.1 0 0 1-1.5 2.3h-.2l-.3.2-.6.3h-.4l-.3.2h-2l-1.3-.2a9.9 9.9 0 0 1-2.4-.9l-1.1-.8-.9-1a4.1 4.1 0 0 1-.7-1.1l-.2.3V20l-.2-.3v-.2a5 5 0 0 1-.3-1.3v-.9c0-.1-.1-.2-.1-.3a11.3 11.3 0 0 1 .3-2.5 10.9 10.9 0 0 1 .7-2.4 11.3 11.3 0 0 1 .9-2.3A10.1 10.1 0 0 1 5 7.9a9 9 0 0 1 1.9-1.5l2.3-1.1h7.2l2.3.6A16.5 16.5 0 0 1 22.9 8a16.3 16.3 0 0 1 3.4 3 18.3 18.3 0 0 1 2.6 3.8 16.4 16.4 0 0 1 1.3 4.3c.1.3.1.6.2.9 0 .3.1.9.1 1.6z"/></svg>