<svg xmlns="http://www.w3.org/2000/svg" width="19.2" height="19.2" viewBox="0 0 15.8 15.8"><path fill="#231f20" d="M13.3 10a7.2 7.2 0 0 1-.4 2.2c-.3.6-.7 1-1.1 1s-.9-.5-1.1-1.3a.9.9 0 0 0 .8.6c.5 0 .8-.4 1.1-1 0-.1.1-.2.1-.3a5.4 5.4 0 0 0 .3-1.9V9c0-.3-.1-.6-.1-.9s-.1-.5-.2-.7l.3.6c0 .2.1.4.1.6a5.9 5.9 0 0 1 .2 1.4zm-2.2-.4a7.3 7.3 0 0 1-.4 2.3c-.3.7-.7 1.2-1.2 1.2s-1-.6-1.3-1.4.6.7 1 .7.9-.5 1.2-1.3a.4.4 0 0 1 .1-.3 11.1 11.1 0 0 0 .2-1.9v-.8a3.6 3.6 0 0 0-.2-1h.1a1.9 1.9 0 0 1 .2.8 4.8 4.8 0 0 1 .3 1.7zM10.6 7h-.1v-.2c0 .1 0 .1.1.2z"/><path fill="#231f20" d="M15 10.7c0 1.4-.6 2.6-1.2 2.6s-.7-.4-.9-1.1.4.5.7.5.8-.5 1-1.3a3.1 3.1 0 0 0-.1-1.5v-.4l-.6-1.4-.3-.4c0-.1-.1-.1-.1-.2a4.9 4.9 0 0 0-1.2-1.3l-.3-.3-.2-.2c-.1 0-.1 0-.1-.1h-.3c-.1 0-.2 0-.2-.1l-.4-.2A6.7 6.7 0 0 0 9 4.6l-1-.4H5.3l-.8.3-.7.6-.6.6a3 3 0 0 0-.4.8 3.3 3.3 0 0 0-.4 1.7.8.8 0 0 0 .1.4h.1l.2.4.6.6.3.2h1.2a.8.8 0 0 0 .7-.2l.3-.2.2-.4a.4.4 0 0 0 .1-.3h.1v.7l-.2-.3-.2-.3h-.7l-.3.2h.5c.1 0 .1 0 .1.1v.2h-.8a.9.9 0 0 1 .3-.6l.2-.2h1l.6.4.3.6a.4.4 0 0 1 .1.3 1.7 1.7 0 0 1-.1.7 1.8 1.8 0 0 1-.7 1H6l-.3.2H3.8l-1.1-.5-.6-.4-.4-.4-.4-.6v.1h-.2A1.4 1.4 0 0 1 .9 9s-.1-.1 0-.1A2.5 2.5 0 0 1 1 7.2 5.3 5.3 0 0 1 1.3 6l.6-1 .8-.9.9-.7 1.1-.5h3.5l1.1.1a7.5 7.5 0 0 1 2 1A8 8 0 0 1 13 5.5a5.7 5.7 0 0 1 1.2 1.8 6.6 6.6 0 0 1 .6 2 .9.9 0 0 1 .1.5c0 .3.1.6.1.9z"/></svg>